<svg
    width="315.06958px"
    height="70px"
    viewBox="0 0 315.06958 70"
    version="1.1"
    xmlns:xlink="http://www.w3.org/1999/xlink"
    xmlns="http://www.w3.org/2000/svg"
  >
    <g id="BpmillerLogoText">
      <path
        d="M293.284 40.5942C293.284 34.5783 298.161 29.7015 304.177 29.7015C310.193 29.7015 315.07 34.5783 315.07 40.5942C315.07 46.61 310.193 51.4868 304.177 51.4868C298.161 51.4868 293.284 46.61 293.284 40.5942Z"
        id="Circle"
        fill="#FFFFFF"
        fill-rule="evenodd"
        stroke="none"
      />
      <g id="Group">
        <path
          d="M24.2147 12.1769L24.2147 12.1769C27.4155 12.1769 30.28 12.9771 32.8081 14.5775L32.8081 14.5775L32.8081 14.5775C35.3363 16.1779 37.331 18.4742 38.7922 21.4662L38.7922 21.4662L38.7922 21.4662C40.2535 24.4583 40.9841 27.9954 40.9841 32.0775L40.9841 32.0775L40.9841 32.0775C40.9841 36.1133 40.2535 39.6388 38.7922 42.6541L38.7922 42.6541L38.7922 42.6541C37.331 45.6693 35.3363 47.9771 32.8081 49.5775L32.8081 49.5775L32.8081 49.5775C30.28 51.1779 27.4155 51.9781 24.2147 51.9781L24.2147 51.9781L24.2147 51.9781C21.2459 51.9781 18.6945 51.3055 16.5606 49.9602L16.5606 49.9602L16.5606 49.9602C14.4268 48.615 12.8728 46.7826 11.8986 44.4632L11.8986 44.4632L11.8986 51.4911L0 51.4911L0 2.00892e-06L11.8986 2.00892e-06L11.8986 19.6919L11.8986 19.6919C12.8728 17.3724 14.4268 15.5401 16.5606 14.1948L16.5606 14.1948L16.5606 14.1948C18.6945 12.8496 21.2459 12.1769 24.2147 12.1769L24.2147 12.1769L24.2147 12.1769ZM20.3877 22.6143L20.3877 22.6143C17.8827 22.6143 15.83 23.4609 14.2296 25.1541L14.2296 25.1541L14.2296 25.1541C12.6292 26.8472 11.829 29.1551 11.829 32.0775L11.829 32.0775L11.829 32.0775C11.829 34.9536 12.6292 37.2498 14.2296 38.9662L14.2296 38.9662L14.2296 38.9662C15.83 40.6826 17.8827 41.5408 20.3877 41.5408L20.3877 41.5408L20.3877 41.5408C22.939 41.5408 24.9917 40.7058 26.5457 39.0358L26.5457 39.0358L26.5457 39.0358C28.0997 37.3658 28.8767 35.0464 28.8767 32.0775L28.8767 32.0775L28.8767 32.0775C28.8767 29.1087 28.0997 26.7893 26.5457 25.1193L26.5457 25.1193L26.5457 25.1193C24.9917 23.4493 22.939 22.6143 20.3877 22.6143L20.3877 22.6143L20.3877 22.6143ZM67.0427 12.1769L67.0427 12.1769C70.2435 12.1769 73.108 12.9771 75.6362 14.5775L75.6362 14.5775L75.6362 14.5775C78.1643 16.1779 80.159 18.4742 81.6203 21.4662L81.6203 21.4662L81.6203 21.4662C83.0815 24.4583 83.8121 27.9954 83.8121 32.0775L83.8121 32.0775L83.8121 32.0775C83.8121 36.1133 83.0815 39.6388 81.6203 42.6541L81.6203 42.6541L81.6203 42.6541C80.159 45.6693 78.1643 47.9771 75.6362 49.5775L75.6362 49.5775L75.6362 49.5775C73.108 51.1779 70.2435 51.9781 67.0427 51.9781L67.0427 51.9781L67.0427 51.9781C64.0739 51.9781 61.5225 51.3055 59.3887 49.9602L59.3887 49.9602L59.3887 49.9602C57.2548 48.615 55.7008 46.7826 54.7266 44.4632L54.7266 44.4632L54.7266 70L42.828 70L42.828 12.664L54.7266 12.664L54.7266 19.6919L54.7266 19.6919C55.7008 17.3724 57.2548 15.5401 59.3887 14.1948L59.3887 14.1948L59.3887 14.1948C61.5225 12.8496 64.0739 12.1769 67.0427 12.1769L67.0427 12.1769L67.0427 12.1769ZM63.2157 22.6143L63.2157 22.6143C60.7107 22.6143 58.658 23.4609 57.0576 25.1541L57.0576 25.1541L57.0576 25.1541C55.4572 26.8472 54.6571 29.1551 54.6571 32.0775L54.6571 32.0775L54.6571 32.0775C54.6571 34.9536 55.4572 37.2498 57.0576 38.9662L57.0576 38.9662L57.0576 38.9662C58.658 40.6826 60.7107 41.5408 63.2157 41.5408L63.2157 41.5408L63.2157 41.5408C65.7671 41.5408 67.8197 40.7058 69.3737 39.0358L69.3737 39.0358L69.3737 39.0358C70.9278 37.3658 71.7048 35.0464 71.7048 32.0775L71.7048 32.0775L71.7048 32.0775C71.7048 29.1087 70.9278 26.7893 69.3737 25.1193L69.3737 25.1193L69.3737 25.1193C67.8197 23.4493 65.7671 22.6143 63.2157 22.6143L63.2157 22.6143L63.2157 22.6143ZM135.964 12.2465L135.964 12.2465C140.742 12.2465 144.5 13.7194 147.237 16.665L147.237 16.665L147.237 16.665C149.973 19.6107 151.342 23.7044 151.342 28.9463L151.342 28.9463L151.342 51.4911L139.513 51.4911L139.513 30.338L139.513 30.338C139.513 27.8794 138.852 25.9659 137.53 24.5974L137.53 24.5974L137.53 24.5974C136.208 23.229 134.41 22.5447 132.137 22.5447L132.137 22.5447L132.137 22.5447C129.771 22.5447 127.904 23.2754 126.536 24.7366L126.536 24.7366L126.536 24.7366C125.167 26.1978 124.483 28.2505 124.483 30.8946L124.483 30.8946L124.483 51.4911L112.584 51.4911L112.584 30.338L112.584 30.338C112.584 27.8794 111.935 25.9659 110.636 24.5974L110.636 24.5974L110.636 24.5974C109.337 23.229 107.551 22.5447 105.278 22.5447L105.278 22.5447L105.278 22.5447C102.913 22.5447 101.034 23.2638 99.6421 24.7018L99.6421 24.7018L99.6421 24.7018C98.2505 26.1398 97.5547 28.2041 97.5547 30.8946L97.5547 30.8946L97.5547 51.4911L85.6561 51.4911L85.6561 12.664L97.5547 12.664L97.5547 19.2744L97.5547 19.2744C98.5752 17.0941 100.141 15.3777 102.251 14.1253L102.251 14.1253L102.251 14.1253C104.362 12.8728 106.832 12.2465 109.662 12.2465L109.662 12.2465L109.662 12.2465C112.631 12.2465 115.252 12.9308 117.525 14.2992L117.525 14.2992L117.525 14.2992C119.798 15.6677 121.514 17.6276 122.674 20.1789L122.674 20.1789L122.674 20.1789C124.019 17.7667 125.863 15.8416 128.206 14.4036L128.206 14.4036L128.206 14.4036C130.548 12.9655 133.135 12.2465 135.964 12.2465L135.964 12.2465L135.964 12.2465ZM154.925 12.664L166.824 12.664L166.824 51.4911L154.925 51.4911L154.925 12.664L154.925 12.664ZM170.686 2.00892e-06L182.584 2.00892e-06L182.584 51.4911L170.686 51.4911L170.686 2.00892e-06L170.686 2.00892e-06ZM186.446 2.00892e-06L198.345 2.00892e-06L198.345 51.4911L186.446 51.4911L186.446 2.00892e-06L186.446 2.00892e-06ZM239.085 31.0338L239.085 31.0338C239.085 32.008 238.969 33.0749 238.738 34.2346L238.738 34.2346L211.809 34.2346L211.809 34.2346C211.948 37.1571 212.691 39.2561 214.036 40.5318L214.036 40.5318L214.036 40.5318C215.381 41.8075 217.097 42.4453 219.185 42.4453L219.185 42.4453L219.185 42.4453C220.948 42.4453 222.409 42.0046 223.569 41.1233L223.569 41.1233L223.569 41.1233C224.728 40.2419 225.494 39.1054 225.865 37.7137L225.865 37.7137L238.459 37.7137L238.459 37.7137C237.949 40.4506 236.836 42.8976 235.119 45.0547L235.119 45.0547L235.119 45.0547C233.403 47.2117 231.223 48.9049 228.579 50.1342L228.579 50.1342L228.579 50.1342C225.934 51.3635 222.989 51.9781 219.742 51.9781L219.742 51.9781L219.742 51.9781C215.938 51.9781 212.563 51.1779 209.617 49.5775L209.617 49.5775L209.617 49.5775C206.672 47.9771 204.364 45.6693 202.694 42.6541L202.694 42.6541L202.694 42.6541C201.024 39.6388 200.189 36.1133 200.189 32.0775L200.189 32.0775L200.189 32.0775C200.189 27.9954 201.012 24.4583 202.659 21.4662L202.659 21.4662L202.659 21.4662C204.306 18.4742 206.614 16.1779 209.582 14.5775L209.582 14.5775L209.582 14.5775C212.551 12.9771 215.938 12.1769 219.742 12.1769L219.742 12.1769L219.742 12.1769C223.592 12.1769 226.978 12.9655 229.901 14.5427L229.901 14.5427L229.901 14.5427C232.823 16.1199 235.084 18.335 236.685 21.1879L236.685 21.1879L236.685 21.1879C238.285 24.0408 239.085 27.3227 239.085 31.0338L239.085 31.0338L239.085 31.0338ZM227.048 29.2247L227.048 29.2247C227.094 26.6733 226.41 24.7598 224.995 23.4841L224.995 23.4841L224.995 23.4841C223.58 22.2084 221.829 21.5706 219.742 21.5706L219.742 21.5706L219.742 21.5706C217.561 21.5706 215.752 22.22 214.314 23.5189L214.314 23.5189L214.314 23.5189C212.876 24.8178 212.064 26.7197 211.879 29.2247L211.879 29.2247L227.048 29.2247L227.048 29.2247ZM252.828 19.9702L252.828 19.9702C254.312 17.6044 256.226 15.7256 258.569 14.334L258.569 14.334L258.569 14.334C260.911 12.9423 263.451 12.2465 266.188 12.2465L266.188 12.2465L266.188 24.9801L262.778 24.9801L262.778 24.9801C259.624 24.9801 257.177 25.6528 255.437 26.998L255.437 26.998L255.437 26.998C253.698 28.3433 252.828 30.6163 252.828 33.8171L252.828 33.8171L252.828 51.4911L240.929 51.4911L240.929 12.664L252.828 12.664L252.828 19.9702L252.828 19.9702Z"
          id="Shape"
          fill="#66D8EC"
          fill-rule="evenodd"
          stroke="none"
        />
        <path
          d="M154.926 5.9493C154.926 2.66359 157.59 0 160.876 0C164.161 0 166.825 2.66359 166.825 5.9493C166.825 9.23501 164.161 11.8986 160.876 11.8986C157.59 11.8986 154.926 9.23501 154.926 5.9493Z"
          id="Circle"
          fill="#BB77FF"
          fill-rule="evenodd"
          stroke="none"
        />
      </g>
    </g>
  </svg>